#define ab7d7f680829430f9460002f13379a59Bh0ZQz8cydUNJ3qk_width 20
#define ab7d7f680829430f9460002f13379a59Bh0ZQz8cydUNJ3qk_height 20
static char ab7d7f680829430f9460002f13379a59Bh0ZQz8cydUNJ3qk_bits[] = {
  0x00, 0x00, 0x00, 0x00, 0x00, 0x00, 0x00, 0x00, 0x00, 0x00, 0x06, 0x00, 
  0x00, 0x06, 0x00, 0x00, 0x0F, 0x00, 0x00, 0x0F, 0x00, 0x80, 0x1F, 0x00, 
  0xC0, 0x1F, 0x00, 0xC0, 0x39, 0x00, 0xE0, 0x79, 0x00, 0xE0, 0x78, 0x00, 
  0xF0, 0xF0, 0x00, 0x70, 0xE0, 0x00, 0x78, 0xFC, 0x01, 0x38, 0xF0, 0x01, 
  0x3C, 0xC0, 0x03, 0x04, 0x00, 0x01, 0x00, 0x00, 0x00, 0x00, 0x00, 0x00, 
  };
